<svg width="108" height="24" viewBox="0 0 108 24" fill="none" xmlns="http://www.w3.org/2000/svg">
<path d="M3.85714 18.0714H5.78571V20H3.85714V18.0714ZM3.85714 16.1429H5.78571V18.0714H3.85714V16.1429ZM3.85714 14.2143H5.78571V16.1429H3.85714V14.2143ZM1.92857 16.1429H3.85714V18.0714H1.92857V16.1429ZM1.92857 14.2143H3.85714V16.1429H1.92857V14.2143ZM0 14.2143H1.92857V16.1429H0V14.2143ZM1.92857 12.2857H3.85714V14.2143H1.92857V12.2857ZM5.78571 14.2143H7.71429V16.1429H5.78571V14.2143ZM5.78571 16.1429H7.71429V18.0714H5.78571V16.1429ZM7.71429 14.2143H9.64286V16.1429H7.71429V14.2143ZM0 12.2857H1.92857V14.2143H0V12.2857ZM1.92857 10.3571H3.85714V12.2857H1.92857V10.3571ZM0 10.3571H1.92857V12.2857H0V10.3571ZM0 8.42857H1.92857V10.3571H0V8.42857ZM1.92857 8.42857H3.85714V10.3571H1.92857V8.42857ZM1.92857 6.5H3.85714V8.42857H1.92857V6.5ZM0 6.5H1.92857V8.42857H0V6.5ZM0 4.57143H1.92857V6.5H0V4.57143ZM1.92857 4.57143H3.85714V6.5H1.92857V4.57143ZM0 0.714286H1.92857V2.64286H0V0.714286ZM1.92857 0.714286H3.85714V2.64286H1.92857V0.714286ZM1.92857 2.64286H3.85714V4.57143H1.92857V2.64286ZM0 2.64286H1.92857V4.57143H0V2.64286ZM13.5 18.0714H15.4286V20H13.5V18.0714ZM13.5 16.1429H15.4286V18.0714H13.5V16.1429ZM13.5 14.2143H15.4286V16.1429H13.5V14.2143ZM11.5714 16.1429H13.5V18.0714H11.5714V16.1429ZM11.5714 14.2143H13.5V16.1429H11.5714V14.2143ZM9.64286 14.2143H11.5714V16.1429H9.64286V14.2143ZM9.64286 12.2857H11.5714V14.2143H9.64286V12.2857ZM15.4286 14.2143H17.3571V16.1429H15.4286V14.2143ZM15.4286 16.1429H17.3571V18.0714H15.4286V16.1429ZM15.4286 12.2857H17.3571V14.2143H15.4286V12.2857ZM17.3571 14.2143H19.2857V16.1429H17.3571V14.2143ZM17.3571 12.2857H19.2857V14.2143H17.3571V12.2857ZM7.71429 12.2857H9.64286V14.2143H7.71429V12.2857ZM15.4286 0.714286H17.3571V2.64286H15.4286V0.714286ZM17.3571 0.714286H19.2857V2.64286H17.3571V0.714286ZM17.3571 2.64286H19.2857V4.57143H17.3571V2.64286ZM17.3571 4.57143H19.2857V6.5H17.3571V4.57143ZM17.3571 6.5H19.2857V8.42857H17.3571V6.5ZM17.3571 8.42857H19.2857V10.3571H17.3571V8.42857ZM15.4286 8.42857H17.3571V10.3571H15.4286V8.42857ZM15.4286 10.3571H17.3571V12.2857H15.4286V10.3571ZM15.4286 6.5H17.3571V8.42857H15.4286V6.5ZM15.4286 4.57143H17.3571V6.5H15.4286V4.57143ZM15.4286 2.64286H17.3571V4.57143H15.4286V2.64286ZM17.3571 10.3571H19.2857V12.2857H17.3571V10.3571ZM9.64286 10.3571H11.5714V12.2857H9.64286V10.3571ZM7.71429 10.3571H9.64286V12.2857H7.71429V10.3571ZM7.71429 8.42857H9.64286V10.3571H7.71429V8.42857ZM9.64286 8.42857H11.5714V10.3571H9.64286V8.42857ZM9.64286 6.5H11.5714V8.42857H9.64286V6.5ZM7.71429 6.5H9.64286V8.42857H7.71429V6.5ZM7.71429 4.57143H9.64286V6.5H7.71429V4.57143ZM9.64286 4.57143H11.5714V6.5H9.64286V4.57143ZM7.71429 0.714286H9.64286V2.64286H7.71429V0.714286ZM9.64286 0.714286H11.5714V2.64286H9.64286V0.714286ZM9.64286 2.64286H11.5714V4.57143H9.64286V2.64286ZM7.71429 2.64286H9.64286V4.57143H7.71429V2.64286ZM32.6706 20H30.7421V18.0714H32.6706V20ZM32.6706 18.0714H30.7421V16.1429H32.6706V18.0714ZM30.7421 18.0714H28.8135V16.1429H30.7421V18.0714ZM28.8135 20H26.8849V18.0714H28.8135V20ZM26.8849 20H24.9564V18.0714H26.8849V20ZM24.9564 20H23.0278V18.0714H24.9564V20ZM24.9564 18.0714H23.0278V16.1429H24.9564V18.0714ZM26.8849 18.0714H24.9564V16.1429H26.8849V18.0714ZM23.0278 18.0714H21.0992V16.1429H23.0278V18.0714ZM23.0278 16.1429H21.0992V14.2143H23.0278V16.1429ZM23.0278 8.42857H21.0992V6.5H23.0278V8.42857ZM24.9564 8.42857H23.0278V6.5H24.9564V8.42857ZM24.9564 16.1429H23.0278V14.2143H24.9564V16.1429ZM26.8849 8.42857H24.9564V6.5H26.8849V8.42857ZM24.9564 6.5H23.0278V4.57143H24.9564V6.5ZM26.8849 6.5H24.9564V4.57143H26.8849V6.5ZM28.8135 6.5H26.8849V4.57143H28.8135V6.5ZM30.7421 6.5H28.8135V4.57143H30.7421V6.5ZM32.6706 6.5H30.7421V4.57143H32.6706V6.5ZM32.6706 8.42857H30.7421V6.5H32.6706V8.42857ZM30.7421 8.42857H28.8135V6.5H30.7421V8.42857ZM32.6706 10.3571H30.7421V8.42857H32.6706V10.3571ZM34.5992 8.42857H32.6706V6.5H34.5992V8.42857ZM34.5992 10.3571H32.6706V8.42857H34.5992V10.3571ZM34.5992 12.2857H32.6706V10.3571H34.5992V12.2857ZM34.5992 14.2143H32.6706V12.2857H34.5992V14.2143ZM34.5992 16.1429H32.6706V14.2143H34.5992V16.1429ZM34.5992 18.0714H32.6706V16.1429H34.5992V18.0714ZM32.6706 16.1429H30.7421V14.2143H32.6706V16.1429ZM32.6706 14.2143H30.7421V12.2857H32.6706V14.2143ZM32.6706 12.2857H30.7421V10.3571H32.6706V12.2857ZM28.8135 8.42857H26.8849V6.5H28.8135V8.42857ZM28.8135 18.0714H26.8849V16.1429H28.8135V18.0714ZM32.6706 18.0714H34.5992V20H32.6706V18.0714ZM28.8135 10.3571H30.7421V12.2857H28.8135V10.3571ZM26.8849 10.3571H28.8135V12.2857H26.8849V10.3571ZM24.9564 10.3571H26.8849V12.2857H24.9564V10.3571ZM23.0278 10.3571H24.9564V12.2857H23.0278V10.3571ZM21.0992 12.2857H23.0278V14.2143H21.0992V12.2857ZM23.0278 12.2857H24.9564V14.2143H23.0278V12.2857ZM28.8135 12.2857H30.7421V14.2143H28.8135V12.2857ZM26.8849 12.2857H28.8135V14.2143H26.8849V12.2857ZM24.9564 12.2857H26.8849V14.2143H24.9564V12.2857ZM36.4328 6.5H38.3614V8.42857H36.4328V6.5ZM36.4328 4.57143H38.3614V6.5H36.4328V4.57143ZM38.3614 4.57143H40.29V6.5H38.3614V4.57143ZM38.3614 6.5H40.29V8.42857H38.3614V6.5ZM38.3614 8.42857H40.29V10.3571H38.3614V8.42857ZM38.3614 10.3571H40.29V12.2857H38.3614V10.3571ZM38.3614 12.2857H40.29V14.2143H38.3614V12.2857ZM36.4328 12.2857H38.3614V14.2143H36.4328V12.2857ZM36.4328 10.3571H38.3614V12.2857H36.4328V10.3571ZM36.4328 8.42857H38.3614V10.3571H36.4328V8.42857ZM36.4328 14.2143H38.3614V16.1429H36.4328V14.2143ZM38.3614 14.2143H40.29V16.1429H38.3614V14.2143ZM38.3614 16.1429H40.29V18.0714H38.3614V16.1429ZM38.3614 18.0714H40.29V20H38.3614V18.0714ZM36.4328 18.0714H38.3614V20H36.4328V18.0714ZM36.4328 16.1429H38.3614V18.0714H36.4328V16.1429ZM40.29 6.5H42.2185V8.42857H40.29V6.5ZM42.2185 6.5H44.1471V8.42857H42.2185V6.5ZM44.1471 6.5H46.0757V8.42857H44.1471V6.5ZM44.1471 4.57143H46.0757V6.5H44.1471V4.57143ZM42.2185 4.57143H44.1471V6.5H42.2185V4.57143ZM40.29 8.42857H42.2185V10.3571H40.29V8.42857ZM46.0757 6.5H48.0042V8.42857H46.0757V6.5ZM44.1471 8.42857H46.0757V10.3571H44.1471V8.42857ZM49.8328 6.5H51.7614V8.42857H49.8328V6.5ZM49.8328 4.57143H51.7614V6.5H49.8328V4.57143ZM51.7614 4.57143H53.69V6.5H51.7614V4.57143ZM51.7614 6.5H53.69V8.42857H51.7614V6.5ZM51.7614 8.42857H53.69V10.3571H51.7614V8.42857ZM51.7614 10.3571H53.69V12.2857H51.7614V10.3571ZM51.7614 12.2857H53.69V14.2143H51.7614V12.2857ZM49.8328 12.2857H51.7614V14.2143H49.8328V12.2857ZM49.8328 10.3571H51.7614V12.2857H49.8328V10.3571ZM49.8328 8.42857H51.7614V10.3571H49.8328V8.42857ZM49.8328 14.2143H51.7614V16.1429H49.8328V14.2143ZM51.7614 14.2143H53.69V16.1429H51.7614V14.2143ZM51.7614 16.1429H53.69V18.0714H51.7614V16.1429ZM51.7614 18.0714H53.69V20H51.7614V18.0714ZM49.8328 18.0714H51.7614V20H49.8328V18.0714ZM49.8328 16.1429H51.7614V18.0714H49.8328V16.1429ZM59.4757 18.0714H61.4042V20H59.4757V18.0714ZM61.4042 16.1429H63.3328V18.0714H61.4042V16.1429ZM61.4042 14.2143H63.3328V16.1429H61.4042V14.2143ZM61.4042 12.2857H63.3328V14.2143H61.4042V12.2857ZM61.4042 10.3571H63.3328V12.2857H61.4042V10.3571ZM61.4042 8.42857H63.3328V10.3571H61.4042V8.42857ZM61.4042 6.5H63.3328V8.42857H61.4042V6.5ZM59.4757 10.3571H61.4042V12.2857H59.4757V10.3571ZM59.4757 12.2857H61.4042V14.2143H59.4757V12.2857ZM59.4757 14.2143H61.4042V16.1429H59.4757V14.2143ZM59.4757 16.1429H61.4042V18.0714H59.4757V16.1429ZM59.4757 8.42857H61.4042V10.3571H59.4757V8.42857ZM53.69 6.5H55.6185V8.42857H53.69V6.5ZM55.6185 6.5H57.5471V8.42857H55.6185V6.5ZM57.5471 6.5H59.4757V8.42857H57.5471V6.5ZM57.5471 4.57143H59.4757V6.5H57.5471V4.57143ZM59.4757 4.57143H61.4042V6.5H59.4757V4.57143ZM59.4757 6.5H61.4042V8.42857H59.4757V6.5ZM55.6185 4.57143H57.5471V6.5H55.6185V4.57143ZM53.69 18.0714H55.6185V20H53.69V18.0714ZM55.6185 18.0714H57.5471V20H55.6185V18.0714ZM57.5471 18.0714H59.4757V20H57.5471V18.0714ZM57.5471 16.1429H59.4757V18.0714H57.5471V16.1429ZM55.6185 16.1429H57.5471V18.0714H55.6185V16.1429ZM53.69 16.1429H55.6185V18.0714H53.69V16.1429ZM49.8328 20H51.7614V21.9286H49.8328V20ZM51.7614 20H53.69V21.9286H51.7614V20ZM51.7614 21.9286H53.69V23.8571H51.7614V21.9286ZM49.8328 21.9286H51.7614V23.8571H49.8328V21.9286ZM65.1664 0.714286H67.095V2.64286H65.1664V0.714286ZM67.095 0.714286H69.0235V2.64286H67.095V0.714286ZM69.0235 0.714286H70.9521V2.64286H69.0235V0.714286ZM70.9521 0.714286H72.8807V2.64286H70.9521V0.714286ZM72.8807 0.714286H74.8093V2.64286H72.8807V0.714286ZM74.8093 0.714286H76.7378V2.64286H74.8093V0.714286ZM74.8093 2.64286H76.7378V4.57143H74.8093V2.64286ZM72.8807 2.64286H74.8093V4.57143H72.8807V2.64286ZM70.9521 2.64286H72.8807V4.57143H70.9521V2.64286ZM69.0235 2.64286H70.9521V4.57143H69.0235V2.64286ZM67.095 2.64286H69.0235V4.57143H67.095V2.64286ZM65.1664 2.64286H67.095V4.57143H65.1664V2.64286ZM76.7378 2.64286H78.6664V4.57143H76.7378V2.64286ZM74.8093 4.57143H76.7378V6.5H74.8093V4.57143ZM76.7378 4.57143H78.6664V6.5H76.7378V4.57143ZM76.7378 6.5H78.6664V8.42857H76.7378V6.5ZM76.7378 8.42857H78.6664V10.3571H76.7378V8.42857ZM74.8093 8.42857H76.7378V10.3571H74.8093V8.42857ZM74.8093 6.5H76.7378V8.42857H74.8093V6.5ZM74.8093 10.3571H76.7378V12.2857H74.8093V10.3571ZM74.8093 12.2857H76.7378V14.2143H74.8093V12.2857ZM72.8807 12.2857H74.8093V14.2143H72.8807V12.2857ZM72.8807 10.3571H74.8093V12.2857H72.8807V10.3571ZM70.9521 10.3571H72.8807V12.2857H70.9521V10.3571ZM70.9521 12.2857H72.8807V14.2143H70.9521V12.2857ZM69.0235 12.2857H70.9521V14.2143H69.0235V12.2857ZM69.0235 10.3571H70.9521V12.2857H69.0235V10.3571ZM67.095 10.3571H69.0235V12.2857H67.095V10.3571ZM65.1664 10.3571H67.095V12.2857H65.1664V10.3571ZM65.1664 12.2857H67.095V14.2143H65.1664V12.2857ZM67.095 12.2857H69.0235V14.2143H67.095V12.2857ZM65.1664 4.57143H67.095V6.5H65.1664V4.57143ZM67.095 4.57143H69.0235V6.5H67.095V4.57143ZM67.095 6.5H69.0235V8.42857H67.095V6.5ZM67.095 8.42857H69.0235V10.3571H67.095V8.42857ZM65.1664 6.5H67.095V8.42857H65.1664V6.5ZM65.1664 8.42857H67.095V10.3571H65.1664V8.42857ZM65.1664 14.2143H67.095V16.1429H65.1664V14.2143ZM67.095 14.2143H69.0235V16.1429H67.095V14.2143ZM67.095 16.1429H69.0235V18.0714H67.095V16.1429ZM67.095 18.0714H69.0235V20H67.095V18.0714ZM65.1664 18.0714H67.095V20H65.1664V18.0714ZM65.1664 16.1429H67.095V18.0714H65.1664V16.1429ZM76.7378 10.3571H78.6664V12.2857H76.7378V10.3571ZM92.0714 20H90.1429V18.0714H92.0714V20ZM92.0714 18.0714H90.1429V16.1429H92.0714V18.0714ZM90.1429 18.0714H88.2143V16.1429H90.1429V18.0714ZM88.2143 20H86.2857V18.0714H88.2143V20ZM86.2857 20H84.3571V18.0714H86.2857V20ZM84.3571 20H82.4286V18.0714H84.3571V20ZM84.3571 18.0714H82.4286V16.1429H84.3571V18.0714ZM86.2857 18.0714H84.3571V16.1429H86.2857V18.0714ZM82.4286 18.0714H80.5V16.1429H82.4286V18.0714ZM82.4286 16.1429H80.5V14.2143H82.4286V16.1429ZM82.4286 8.42857H80.5V6.5H82.4286V8.42857ZM84.3571 8.42857H82.4286V6.5H84.3571V8.42857ZM84.3571 16.1429H82.4286V14.2143H84.3571V16.1429ZM86.2857 8.42857H84.3571V6.5H86.2857V8.42857ZM84.3571 6.5H82.4286V4.57143H84.3571V6.5ZM86.2857 6.5H84.3571V4.57143H86.2857V6.5ZM88.2143 6.5H86.2857V4.57143H88.2143V6.5ZM90.1429 6.5H88.2143V4.57143H90.1429V6.5ZM92.0714 6.5H90.1429V4.57143H92.0714V6.5ZM92.0714 8.42857H90.1429V6.5H92.0714V8.42857ZM90.1429 8.42857H88.2143V6.5H90.1429V8.42857ZM92.0714 10.3571H90.1429V8.42857H92.0714V10.3571ZM94 8.42857H92.0714V6.5H94V8.42857ZM94 10.3571H92.0714V8.42857H94V10.3571ZM94 12.2857H92.0714V10.3571H94V12.2857ZM94 14.2143H92.0714V12.2857H94V14.2143ZM94 16.1429H92.0714V14.2143H94V16.1429ZM94 18.0714H92.0714V16.1429H94V18.0714ZM92.0714 16.1429H90.1429V14.2143H92.0714V16.1429ZM92.0714 14.2143H90.1429V12.2857H92.0714V14.2143ZM92.0714 12.2857H90.1429V10.3571H92.0714V12.2857ZM88.2143 8.42857H86.2857V6.5H88.2143V8.42857ZM88.2143 18.0714H86.2857V16.1429H88.2143V18.0714ZM92.0714 18.0714H94V20H92.0714V18.0714ZM88.2143 10.3571H90.1429V12.2857H88.2143V10.3571ZM86.2857 10.3571H88.2143V12.2857H86.2857V10.3571ZM84.3571 10.3571H86.2857V12.2857H84.3571V10.3571ZM82.4286 10.3571H84.3571V12.2857H82.4286V10.3571ZM80.5 12.2857H82.4286V14.2143H80.5V12.2857ZM82.4286 12.2857H84.3571V14.2143H82.4286V12.2857ZM88.2143 12.2857H90.1429V14.2143H88.2143V12.2857ZM86.2857 12.2857H88.2143V14.2143H86.2857V12.2857ZM84.3571 12.2857H86.2857V14.2143H84.3571V12.2857ZM95.8336 4.57143H97.7622V6.5H95.8336V4.57143ZM97.7622 4.57143H99.6907V6.5H97.7622V4.57143ZM97.7622 6.5H99.6907V8.42857H97.7622V6.5ZM97.7622 8.42857H99.6907V10.3571H97.7622V8.42857ZM97.7622 10.3571H99.6907V12.2857H97.7622V10.3571ZM95.8336 8.42857H97.7622V10.3571H95.8336V8.42857ZM95.8336 6.5H97.7622V8.42857H95.8336V6.5ZM95.8336 10.3571H97.7622V12.2857H95.8336V10.3571ZM95.8336 12.2857H97.7622V14.2143H95.8336V12.2857ZM97.7622 12.2857H99.6907V14.2143H97.7622V12.2857ZM97.7622 14.2143H99.6907V16.1429H97.7622V14.2143ZM99.6907 14.2143H101.619V16.1429H99.6907V14.2143ZM99.6907 16.1429H101.619V18.0714H99.6907V16.1429ZM101.619 16.1429H103.548V18.0714H101.619V16.1429ZM103.548 16.1429H105.476V18.0714H103.548V16.1429ZM103.548 14.2143H105.476V16.1429H103.548V14.2143ZM103.548 12.2857H105.476V14.2143H103.548V12.2857ZM105.476 12.2857H107.405V14.2143H105.476V12.2857ZM105.476 14.2143H107.405V16.1429H105.476V14.2143ZM105.476 10.3571H107.405V12.2857H105.476V10.3571ZM103.548 10.3571H105.476V12.2857H103.548V10.3571ZM103.548 4.57143H105.476V6.5H103.548V4.57143ZM105.476 4.57143H107.405V6.5H105.476V4.57143ZM105.476 6.5H107.405V8.42857H105.476V6.5ZM105.476 8.42857H107.405V10.3571H105.476V8.42857ZM103.548 6.5H105.476V8.42857H103.548V6.5ZM103.548 8.42857H105.476V10.3571H103.548V8.42857ZM101.619 18.0714H103.548V20H101.619V18.0714ZM99.6907 18.0714H101.619V20H99.6907V18.0714ZM99.6907 20H101.619V21.9286H99.6907V20ZM97.7622 20H99.6907V21.9286H97.7622V20ZM97.7622 18.0714H99.6907V20H97.7622V18.0714ZM97.7622 21.9286H99.6907V23.8571H97.7622V21.9286ZM95.8336 21.9286H97.7622V23.8571H95.8336V21.9286ZM95.8336 20H97.7622V21.9286H95.8336V20ZM101.619 14.2143H103.548V16.1429H101.619V14.2143ZM99.6907 12.2857H101.619V14.2143H99.6907V12.2857Z" fill="#122442"/>
</svg>
